<?xml version="1.0" standalone="no"?><!DOCTYPE svg PUBLIC "-//W3C//DTD SVG 1.1//EN" "http://www.w3.org/Graphics/SVG/1.1/DTD/svg11.dtd"><svg t="1586604514976" class="icon" viewBox="0 0 1024 1024" version="1.1" xmlns="http://www.w3.org/2000/svg" p-id="2756" xmlns:xlink="http://www.w3.org/1999/xlink" width="200" height="200"><defs><style type="text/css"></style></defs><path d="M278 356h155l32 127.5v239.2c0 20.1-16.3 36.3-36.5 36.3h-146c-20.2 0-36.5-16.3-36.5-36.3V483.5L278 356z" fill="#FCF3DC" p-id="2757"></path><path d="M259 315.2c0-4.5 3.7-8.2 8.2-8.2h173.7c4.5 0 8.2 3.7 8.2 8.2v32.7c0 4.5-3.7 8.2-8.2 8.2H267.2c-4.5 0-8.2-3.7-8.2-8.2v-32.7z" fill="#78A0CF" p-id="2758"></path><path d="M376 545.7v54.7c0 7.5-6.1 13.7-13.7 13.7H246v-82h116.3c7.6-0.1 13.7 6 13.7 13.6z" fill="#D8EDF7" p-id="2759"></path><path d="M254.5 528c1.9 0 3.8 0.7 5.3 2.2l37 37.4c2.9 3 2.9 7.8 0 10.7l-37 37.4c-2.9 3-7.7 3-10.6 0l-1.2-1.2v-83.2l1.2-1.2c1.4-1.4 3.3-2.1 5.3-2.1z" fill="#2480A8" p-id="2760"></path><path d="M250.3 551c0.3 0 0.7 0.1 0.9 0.4 1.6 1.8 4.7 5.6 7.5 9.9 3.6 5.6 5.4 10.2 5.4 13.7 0 7.2-6.2 13-13.7 13l-2.3-0.4v-4.3l1.7 0.3c0.8 0 1.7-0.1 2.5-0.3 0.3-0.1 0.4-0.3 0.4-0.5s-0.2-0.4-0.5-0.5c-1.4-0.1-2.7-0.5-3.9-1l-0.2-0.1v-27.9l1.4-1.7c0.1-0.5 0.4-0.6 0.8-0.6z" fill="#FFD8B4" p-id="2761"></path><path d="M278.2 355h154.6l5.2 20H273l5.2-20z" fill="#B1DBEE" p-id="2762"></path><path d="M267.5 307h174.1c4.5 0 8.1 3.6 8.1 8.1v32.3c0 4.5-3.6 8.1-8.1 8.1h-8.2l4.9 19.7h-0.3l27 108v25.4L344.4 759.1h-61.3c-20.1 0-36.4-16.3-36.4-36.4V483.2l27-108h-0.3l4.9-19.7h-10.9c-4.5 0-8.1-3.6-8.1-8.1v-32.3c0.1-4.5 3.7-8.1 8.2-8.1z" fill="#FFFDF8" fill-opacity=".302" p-id="2763"></path><path d="M454 384.3c0-31.1 25.2-56.3 56.3-56.3h225.3c31.1 0 56.3 25.2 56.3 56.3v389.3c0 31.1-25.2 56.3-56.3 56.3H510.3c-31.1 0-56.3-25.2-56.3-56.3V384.3z" fill="#B1DBEE" p-id="2764"></path><path d="M454 374l32-128h274l32 128H454z" fill="#78A0CF" p-id="2765"></path><path d="M507 204h232c11.6 0 21 9.4 21 21v21H486v-21c0-11.6 9.4-21 21-21z" fill="#B1DBEE" p-id="2766"></path><path d="M716 204h18v42h-18zM683 204h19v42h-19zM650 204h19v42h-19zM618 204h19v42h-19zM585 204h19v42h-19zM553 204h18v42h-18z" fill="#7F7F7F" p-id="2767"></path><path d="M520 204h19v42h-19z" fill="#FFBA6C" p-id="2768"></path><path d="M454 564.7c0-7.5 6.1-13.7 13.7-13.7h310.7c7.5 0 13.7 6.1 13.7 13.7v54.7c0 7.5-6.1 13.7-13.7 13.7H467.7c-7.5 0-13.7-6.1-13.7-13.7v-54.7z" fill="#D8EDF7" p-id="2769"></path><path d="M575.2 586.6l37.4-37.4c3-3 7.8-3 10.7 0l37.4 37.4c3 3 3 7.8 0 10.7l-37.4 37.4c-3 3-7.8 3-10.7 0l-37.4-37.4c-2.9-2.9-2.9-7.7 0-10.7" fill="#2480A8" p-id="2770"></path><path d="M626.5 584c-2.8-4.2-6-7.9-7.6-9.7-0.2-0.2-0.5-0.4-0.9-0.4s-0.7 0.1-0.9 0.4c-1.6 1.8-4.8 5.4-7.6 9.7-3.7 5.4-5.5 9.9-5.5 13.3 0 7 6.3 12.6 14 12.6s14-5.7 14-12.6c0-3.3-1.9-7.8-5.5-13.3z m-6.6 21.4c-0.8 0.2-1.7 0.3-2.5 0.3-5.2 0-9.5-3.6-9.5-7.9 0-1.1 0.3-2.3 0.9-3.7 0.1-0.2 0.4-0.4 0.7-0.3 0.3 0.1 0.5 0.3 0.5 0.5 0 0.3-0.1 0.6-0.1 0.9 0 4.8 4.3 8.8 9.9 9.3 0.3 0 0.5 0.2 0.5 0.5 0.1 0.1-0.1 0.3-0.4 0.4z" fill="#FFD8B4" p-id="2771"></path><path d="M520 204h19v42h-19z" fill="#778495" p-id="2772"></path><path d="M553 204h18v4.3l-0.1 0.3L553 243v-39z" fill="#778495" p-id="2773"></path><path d="M506.8 204.2h232c11.6 0 21 9.4 21 21v21h0.1l31.9 127.7h-1.1l1.1 10.6v68.8L610.3 830.1H510.2c-31.1 0-56.3-25.2-56.3-56.3V384.5l1.1-10.6h-1.1l31.9-127.7v-21c0-11.6 9.4-21 21-21z" fill="#FFFDF8" fill-opacity=".329" p-id="2774"></path></svg>